PathFileType	4	(X/Y/Z)	s05c0202.trc
DataRate	CameraRate	NumFrames	NumMarkers	Units	OrigDataRate	OrigDataStartFrame	OrigNumFrames
200	200	4	49	mm	200	1500	2000
Frame#	Time	racr			lacr			c7			jug			rlel			rdr			llel			ldr			s2			lic			ric			lasi			rasi			rpsi			lpsi			rgt			lgt			rth1			rth2			rth3			rth4			rlfc			rsh1			rsh2			rsh3			rsh4			rlmal			rmmal			rcal			rtoe			rmt5			lth1			lth2			lth4			lth3			llfc			lmfc			lsh1			lsh2			lsh3			lsh4			llmal			lmmal			lcal			ltoe			lmt5			SBIKE			LBIKE			RBIKE			
		X1	Y1	Z1	X2	Y2	Z2	X3	Y3	Z3	X4	Y4	Z4	X5	Y5	Z5	X6	Y6	Z6	X7	Y7	Z7	X8	Y8	Z8	X9	Y9	Z9	X10	Y10	Z10	X11	Y11	Z11	X12	Y12	Z12	X13	Y13	Z13	X14	Y14	Z14	X15	Y15	Z15	X16	Y16	Z16	X17	Y17	Z17	X18	Y18	Z18	X19	Y19	Z19	X20	Y20	Z20	X21	Y21	Z21	X22	Y22	Z22	X23	Y23	Z23	X24	Y24	Z24	X25	Y25	Z25	X26	Y26	Z26	X27	Y27	Z27	X28	Y28	Z28	X29	Y29	Z29	X30	Y30	Z30	X31	Y31	Z31	X32	Y32	Z32	X33	Y33	Z33	X34	Y34	Z34	X35	Y35	Z35	X36	Y36	Z36	X37	Y37	Z37	X38	Y38	Z38	X39	Y39	Z39	X40	Y40	Z40	X41	Y41	Z41	X42	Y42	Z42	X43	Y43	Z43	X44	Y44	Z44	X45	Y45	Z45	X46	Y46	Z46	X47	Y47	Z47	X48	Y48	Z48	X49	Y49	Z49	
1500	7.5000	465.305879	1233.245211	-130.911352	493.970607	1222.326203	-380.186863	464.680457	1316.227215	-261.675998	390.252481	1170.563253	-260.181136	456.725108	1032.466367	59.552141	650.852222	957.646251	-64.943253	514.011703	1075.074138	-634.967121	629.612924	939.105405	-445.639200	-117.797057	1182.584664	-294.401048	31.418448	1177.892184	-439.758850	17.123581	1215.099872	-155.487741	71.507383	1123.189312	-395.444508	65.933992	1156.494770	-179.433509	-84.220592	1235.957447	-261.804250	-76.746277	1227.931889	-346.629218	-5.665025	1106.394950	-116.444151	-39.740635	1071.969701	-452.871395	103.940170	1061.265523	-111.570421	192.455594	1051.395801	-117.613950	262.209815	997.947519	-120.144624	203.712367	1082.373676	-135.278440	393.124273	925.578115	-153.978525	321.533724	844.358768	-125.373314	300.498026	758.034057	-127.623556	243.446731	694.906741	-124.040276	328.075523	743.906814	-150.368793	185.591112	567.654699	-121.158369	202.008656	591.993456	-201.845659	111.141005	539.930623	-163.768500	401.049869	483.189393	-159.349592	298.572402	473.748521	-92.808496	51.107434	956.041868	-463.876042	121.885198	908.174657	-456.736812	149.093923	929.942518	-443.417801	159.408881	825.614622	-451.576030	234.508271	700.353293	-422.969988	217.454013	687.438801	-315.129728	164.824663	594.270702	-453.244992	150.167634	508.808913	-444.240331	93.433940	440.131574	-446.091417	178.088610	497.441723	-420.069235	53.604866	330.247231	-442.323000	84.737328	343.317735	-367.147165	-15.852306	323.540600	-400.447247	218.182006	143.991387	-398.252141	115.649683	180.739343	-463.481141	-220.633798	910.005054	-274.847595	-53.595210	79.314216	-474.907886	-53.540863	79.165626	-77.280643	
1501	7.5050	464.694240	1234.313454	-130.395504	493.887871	1222.162043	-379.292826	463.975559	1316.769249	-261.315815	390.069491	1170.851124	-259.088507	456.433362	1032.141427	58.343813	650.815172	957.737736	-65.409649	514.442581	1075.766468	-634.654274	629.298880	938.947767	-445.548732	-118.257584	1181.759397	-295.388074	31.292080	1176.781907	-439.901504	15.350113	1214.794248	-155.672767	71.486873	1122.358683	-395.518954	65.347225	1156.274629	-179.259009	-84.852444	1235.200157	-262.772766	-77.028206	1227.051501	-347.631647	-7.084593	1104.693660	-116.959244	-39.059029	1071.241283	-453.785172	102.730618	1057.541672	-111.191703	191.029964	1046.222100	-116.721580	259.988876	991.247645	-119.563519	202.956232	1077.030615	-134.251181	389.776845	916.658683	-153.140950	318.368597	834.259479	-124.024144	299.228885	747.378024	-126.718827	243.601737	682.998417	-123.549624	327.552116	733.778592	-149.168475	189.282895	554.892070	-121.807088	205.272317	580.368520	-202.246866	115.777541	525.001081	-164.688372	407.579952	480.767242	-158.333805	305.435530	466.378554	-92.332999	54.543167	957.421769	-463.701075	126.507758	911.318100	-455.611025	152.765478	933.507057	-441.577232	165.551856	829.511639	-450.313686	241.716733	704.957649	-421.558769	224.160845	691.539831	-313.611969	170.221017	600.147912	-452.218211	153.398550	515.062797	-443.369965	94.942080	447.828948	-445.725742	180.836255	503.070778	-419.048695	52.063040	338.836042	-442.300273	83.718363	350.620226	-367.013336	-17.581370	334.702786	-400.411322	209.345029	146.203983	-398.191823	108.321545	186.950786	-463.261693	-220.601076	910.003741	-274.894727	-53.578695	79.282809	-474.900795	-53.584206	79.335525	-77.122096	
1502	7.5100	464.158918	1235.488141	-130.018566	493.811736	1222.234622	-378.652925	463.399978	1317.439199	-261.145019	389.898261	1171.329950	-258.290189	456.303582	1031.941710	57.104153	650.885088	957.910365	-65.943097	514.792127	1076.438266	-634.333422	629.072939	938.829087	-445.417185	-118.828876	1180.681304	-296.654169	31.344380	1175.506247	-440.081922	14.404978	1214.318561	-155.908986	71.574695	1121.658286	-395.525449	65.024938	1155.952402	-178.700810	-85.402046	1234.080345	-263.521101	-77.353568	1225.987641	-348.743090	-8.727219	1102.433284	-117.801713	-38.040314	1070.316556	-454.809717	101.218658	1053.404764	-110.731308	189.381606	1040.547631	-115.742805	257.398507	984.327860	-118.615758	202.052666	1071.268180	-132.812711	386.003714	907.624765	-151.637928	315.061801	823.640400	-122.631523	298.001988	736.331710	-125.796112	243.898545	670.539765	-123.141034	326.797791	723.422336	-148.082669	193.173773	542.731495	-122.178125	208.484073	568.410206	-202.697886	120.790038	509.990484	-165.068116	414.443759	476.592183	-158.198364	312.517596	458.858410	-92.278667	58.247243	958.946954	-463.544368	131.063050	914.143087	-454.319669	156.627714	936.972124	-439.884076	171.800250	833.541827	-449.037092	248.906576	709.426432	-419.876060	230.883193	695.783123	-311.916578	175.777469	606.103618	-450.992724	156.790295	521.432651	-442.395180	96.744171	455.740401	-445.328091	183.797574	508.709732	-417.876039	50.946752	347.599288	-442.384421	82.512330	358.390675	-366.715769	-18.885103	346.075487	-400.526121	200.779492	148.980923	-398.166378	101.449466	193.695585	-463.091784	-220.579155	909.959945	-274.947001	-53.550006	79.226684	-474.896737	-53.530065	79.139446	-77.281578	
1503	7.5150	463.634058	1236.723667	-129.716914	493.730067	1222.434537	-378.150350	462.831305	1318.079054	-261.207558	389.789990	1171.753953	-257.760648	456.339168	1031.860135	56.011260	650.939441	958.175650	-66.317587	515.205488	1076.973554	-634.065040	628.911815	938.739301	-445.283630	-119.234629	1179.492386	-297.552269	31.566475	1174.447469	-440.523108	13.348721	1213.518705	-156.071675	71.668469	1120.615611	-395.313220	64.413311	1155.311512	-178.444793	-85.955913	1232.709979	-264.542313	-77.616632	1224.544237	-348.994496	-10.126574	1099.926492	-118.452241	-36.815813	1069.367562	-455.861881	99.625969	1048.807408	-110.290631	187.586174	1034.443226	-114.566199	254.590043	977.102059	-117.552913	201.005921	1065.158256	-131.103052	381.482864	898.745177	-149.606966	311.624817	812.690586	-121.326993	296.972496	724.966056	-124.903477	244.571258	657.709767	-122.812421	326.255714	712.791263	-147.019714	197.247170	530.902456	-122.197771	211.942756	556.511140	-202.917429	125.665112	495.352028	-165.305779	420.657659	471.990903	-158.274521	319.271895	450.717691	-92.479598	62.108322	960.498296	-463.464116	135.702488	917.141306	-453.324476	160.632686	940.516882	-438.673311	177.980576	837.395514	-447.660401	256.085772	714.066412	-417.961068	237.149553	700.232657	-310.111953	181.520063	612.077471	-449.651643	160.423762	527.846482	-441.338613	98.932860	463.659311	-444.932054	186.838315	514.358284	-416.578299	50.312985	356.450255	-442.512014	82.048542	366.104176	-366.621644	-19.757662	357.758937	-401.092832	192.465716	152.328175	-398.126135	94.921193	200.732434	-462.968009	-220.557585	909.901330	-275.077599	-53.545131	79.166445	-474.915695	-53.576752	79.307385	-77.147098	
